<?xml version="1.0" encoding="UTF-8" standalone="no"?>
<!-- Created with Inkscape (http://www.inkscape.org/) -->
<svg xmlns:dc="http://purl.org/dc/elements/1.1/" xmlns:cc="http://creativecommons.org/ns#" xmlns:rdf="http://www.w3.org/1999/02/22-rdf-syntax-ns#" xmlns:svg="http://www.w3.org/2000/svg" xmlns="http://www.w3.org/2000/svg" xmlns:sodipodi="http://sodipodi.sourceforge.net/DTD/sodipodi-0.dtd" xmlns:inkscape="http://www.inkscape.org/namespaces/inkscape" sodipodi:docname="cmplxpower.svg" inkscape:version="0.48.1 r9760" version="1.1" id="svg3829" height="498.97089" width="793.25659">
  <sodipodi:namedview id="base" pagecolor="#ffffff" bordercolor="#666666" borderopacity="1.0" inkscape:pageopacity="0.0" inkscape:pageshadow="2" inkscape:zoom="1.0993228" inkscape:cx="449.53823" inkscape:cy="232.63751" inkscape:document-units="px" inkscape:current-layer="layer1" showgrid="false" inkscape:snap-grids="true" inkscape:object-paths="true" inkscape:snap-to-guides="true" inkscape:snap-intersection-paths="false" inkscape:snap-nodes="false" inkscape:snap-bbox="true" inkscape:window-width="1678" inkscape:window-height="1029" inkscape:window-x="0" inkscape:window-y="19" inkscape:window-maximized="1" inkscape:object-nodes="false" inkscape:snap-bbox-midpoints="true" inkscape:snap-bbox-edge-midpoints="false" inkscape:bbox-nodes="true" fit-margin-top="0" fit-margin-left="0" fit-margin-right="0" fit-margin-bottom="0"/>
  <defs id="defs3831">
    <marker style="overflow:visible" id="Arrow2Sstart" refX="0" refY="0" orient="auto" inkscape:stockid="Arrow2Sstart">
      <path transform="matrix(0.3,0,0,0.3,-0.69,0)" d="M 8.7185878,4.0337352 -2.2072895,0.01601326 8.7185884,-4.0017078 c -1.7454984,2.3720609 -1.7354408,5.6174519 -6e-7,8.035443 z" style="font-size:12px;fill-rule:evenodd;stroke-width:0.625;stroke-linejoin:round" id="path4646" inkscape:connector-curvature="0"/>
    </marker>
    <marker inkscape:stockid="Arrow2Mend" orient="auto" refY="0" refX="0" id="Arrow2Mend" style="overflow:visible">
      <path id="path4643" style="font-size:12px;fill-rule:evenodd;stroke-width:0.625;stroke-linejoin:round" d="M 8.7185878,4.0337352 -2.2072895,0.01601326 8.7185884,-4.0017078 c -1.7454984,2.3720609 -1.7354408,5.6174519 -6e-7,8.035443 z" transform="scale(-0.6,-0.6)" inkscape:connector-curvature="0"/>
    </marker>
    <marker inkscape:stockid="Arrow1Lstart" orient="auto" refY="0" refX="0" id="Arrow1Lstart" style="overflow:visible">
      <path id="path4616" d="M 0,0 5,-5 -12.5,0 5,5 0,0 z" style="fill-rule:evenodd;stroke:#000000;stroke-width:1pt;marker-start:none" transform="matrix(0.8,0,0,0.8,10,0)" inkscape:connector-curvature="0"/>
    </marker>
    <marker style="overflow:visible" id="Arrow1Send" refX="0" refY="0" orient="auto" inkscape:stockid="Arrow1Send">
      <path transform="matrix(-0.2,0,0,-0.2,-1.2,0)" style="fill-rule:evenodd;stroke:#000000;stroke-width:1pt;marker-start:none" d="M 0,0 5,-5 -12.5,0 5,5 0,0 z" id="path4631" inkscape:connector-curvature="0"/>
    </marker>
    <marker style="overflow:visible" id="Arrow1Mend" refX="0" refY="0" orient="auto" inkscape:stockid="Arrow1Mend">
      <path transform="matrix(-0.4,0,0,-0.4,-4,0)" style="fill-rule:evenodd;stroke:#000000;stroke-width:1pt;marker-start:none" d="M 0,0 5,-5 -12.5,0 5,5 0,0 z" id="path4625" inkscape:connector-curvature="0"/>
    </marker>
    <marker style="overflow:visible" id="Arrow2Lend" refX="0" refY="0" orient="auto" inkscape:stockid="Arrow2Lend">
      <path transform="matrix(-1.1,0,0,-1.1,-1.1,0)" d="M 8.7185878,4.0337352 -2.2072895,0.01601326 8.7185884,-4.0017078 c -1.7454984,2.3720609 -1.7354408,5.6174519 -6e-7,8.035443 z" style="font-size:12px;fill-rule:evenodd;stroke-width:0.625;stroke-linejoin:round" id="path4637" inkscape:connector-curvature="0"/>
    </marker>
    <marker style="overflow:visible" id="Arrow1Menda" refX="0" refY="0" orient="auto" inkscape:stockid="Arrow1Menda">
      <path transform="matrix(-0.4,0,0,-0.4,-4,0)" style="fill:#000080;fill-rule:evenodd;stroke:#000080;stroke-width:1pt;marker-start:none" d="M 0,0 5,-5 -12.5,0 5,5 0,0 z" id="path6550" inkscape:connector-curvature="0"/>
    </marker>
    <marker inkscape:stockid="Arrow2Menda" orient="auto" refY="0" refX="0" id="Arrow2Menda" style="overflow:visible">
      <path id="path7738" style="font-size:12px;fill:#000080;fill-rule:evenodd;stroke:#000080;stroke-width:0.625;stroke-linejoin:round" d="M 8.7185878,4.0337352 -2.2072895,0.01601326 8.7185884,-4.0017078 c -1.7454984,2.3720609 -1.7354408,5.6174519 -6e-7,8.035443 z" transform="scale(-0.6,-0.6)" inkscape:connector-curvature="0"/>
    </marker>
    <marker style="overflow:visible" id="Arrow1Mendam" refX="0" refY="0" orient="auto" inkscape:stockid="Arrow1Mendam">
      <path transform="matrix(-0.4,0,0,-0.4,-4,0)" style="fill:#800080;fill-rule:evenodd;stroke:#800080;stroke-width:1pt;marker-start:none" d="M 0,0 5,-5 -12.5,0 5,5 0,0 z" id="path8818" inkscape:connector-curvature="0"/>
    </marker>
  </defs>
  <metadata id="metadata3834">
    <rdf:RDF>
      <cc:Work rdf:about="">
        <dc:format>image/svg+xml</dc:format>
        <dc:type rdf:resource="http://purl.org/dc/dcmitype/StillImage"/>
        <dc:title/>
      </cc:Work>
    </rdf:RDF>
  </metadata>
  <path sodipodi:open="true" sodipodi:end="6.2744091" sodipodi:start="5.6945829" d="m 244.80755,501.76832 a 101.96678,101.96678 0 0 1 17.1553,55.717" sodipodi:ry="101.96678" sodipodi:rx="101.96678" sodipodi:cy="558.38019" sodipodi:cx="160" id="path8404" style="fill:none;stroke:#2b0000;stroke-width:1.97800004;stroke-linecap:butt;stroke-linejoin:miter;stroke-miterlimit:4;stroke-opacity:1;stroke-dasharray:none;stroke-dashoffset:0;marker-start:url(#Arrow2Sstart)" sodipodi:type="arc" transform="translate(-76.642857,-114.19503)"/>
  <g transform="translate(-76.642857,-422.46273)" id="layer1" inkscape:groupmode="layer" inkscape:label="Layer 1">
    <path transform="translate(0,308.2677)" inkscape:connector-curvature="0" id="path3839" d="m 77.142857,558.3802 791.428573,0" style="fill:none;stroke:#000000;stroke-width:1px;stroke-linecap:butt;stroke-linejoin:miter;stroke-opacity:1;marker-end:url(#Arrow2Lend)"/>
    <path sodipodi:nodetypes="cc" transform="translate(0,308.2677)" inkscape:connector-curvature="0" id="path3837" d="m 160,612.66591 0,-497.14286" style="fill:none;stroke:#000000;stroke-width:1px;stroke-linecap:butt;stroke-linejoin:miter;stroke-opacity:1;marker-end:url(#Arrow2Lend)"/>
    <path inkscape:connector-curvature="0" id="path3843" d="M 159.99338,866.65452 598.34488,551.49221" style="fill:none;stroke:#800080;stroke-width:1.99598086;stroke-linecap:butt;stroke-linejoin:miter;stroke-miterlimit:4;stroke-opacity:1;stroke-dasharray:none;marker-end:url(#Arrow1Mendam)"/>
    <path sodipodi:nodetypes="cc" inkscape:connector-curvature="0" id="path5425" d="m 601.42857,866.65893 0,-313.64376" style="fill:#0000ff;stroke:#000080;stroke-width:1.97800004;stroke-linecap:butt;stroke-linejoin:miter;stroke-miterlimit:4;stroke-opacity:1;stroke-dasharray:none;marker-start:none;marker-end:url(#Arrow1Menda)"/>
    <path sodipodi:nodetypes="cc" inkscape:connector-curvature="0" id="path5981" d="m 159.99986,866.64791 437.28863,-10e-6" style="fill:none;stroke:#000080;stroke-width:1.99972272;stroke-linecap:butt;stroke-linejoin:miter;stroke-miterlimit:4;stroke-opacity:1;stroke-dasharray:none;marker-end:url(#Arrow1Menda)"/>
    <g id="g9058" transform="matrix(0.54738413,0,0,0.54738413,98.923114,639.66681)">
      <g word-spacing="normal" letter-spacing="normal" font-size-adjust="none" font-stretch="normal" font-weight="normal" font-variant="normal" font-style="normal" stroke-miterlimit="10.433" xml:space="preserve" transform="matrix(1.0629921,0,0,-1.0629921,-186.02362,789.27165)" id="g9060" style="font-style:normal;font-variant:normal;font-weight:normal;font-stretch:normal;letter-spacing:normal;word-spacing:normal;text-anchor:start;fill:none;stroke:#000000;stroke-linecap:butt;stroke-linejoin:miter;stroke-miterlimit:10.43299961;stroke-opacity:1;stroke-dasharray:none;stroke-dashoffset:0"><path id="path9062" d="m 463.99,397.73 -0.01,-0.03 -0.01,-0.03 -0.01,-0.03 -0.01,-0.03 -0.01,-0.02 -0.01,-0.03 -0.01,-0.05 -0.02,-0.05 -0.01,-0.04 -0.01,-0.05 -0.02,-0.04 -0.01,-0.04 -0.01,-0.03 -0.01,-0.04 -0.01,-0.03 -0.01,-0.03 -0.01,-0.03 -0.01,-0.03 0,-0.02 -0.01,-0.03 -0.01,-0.02 0,-0.02 -0.01,-0.03 0,-0.02 0,-0.02 -0.01,-0.04 -0.01,-0.04 0,-0.04 0,-0.04 0,-0.03 0,-0.02 c 0,-1.09 0.95,-1.39 1.45,-1.39 0.25,0 1.35,0.14 1.85,1.3 0.14,0.39 0.39,2.04 1.73,9.11 0.45,-0.05 0.8,-0.1 1.64,-0.1 8.28,0 15.95,7.83 15.95,15.69 l -1.4,-1.09 c 0,-5.63 -6.42,-11.71 -14.1,-11.71 h 0 c -0.39,0 -0.5,0 -0.89,0.05 -0.61,0 -0.65,0.05 -0.65,0.2 0,0.1 0.84,4.63 1,5.38 1.54,6.37 5.43,11.15 9.86,11.15 3.43,0 4.78,-2.68 4.78,-5.07 l 1.4,1.09 c 0,3.89 -1.95,6.87 -5.68,6.87 -7.22,0 -10.21,-9.65 -13.21,-19.37 -5.37,1 -8.17,3.78 -8.17,7.37 0,1.4 1.16,6.88 4.14,10.32 0.39,0.45 0.39,0.54 0.39,0.64 0,0.2 -0.09,0.5 -0.59,0.5 -1.39,0 -5.24,-7.22 -5.24,-12 0,-4.69 3.3,-8.33 8.63,-9.56 z" inkscape:connector-curvature="0" style="fill:#000000;stroke-width:0"/></g>    </g>
    <g style="fill:#800080" transform="matrix(0.87863705,0,0,0.87863705,87.51004,388.53311)" id="g9151">
      <g style="font-style:normal;font-variant:normal;font-weight:normal;font-stretch:normal;letter-spacing:normal;word-spacing:normal;text-anchor:start;fill:#800080;stroke:#000000;stroke-linecap:butt;stroke-linejoin:miter;stroke-miterlimit:10.43299961;stroke-opacity:1;stroke-dasharray:none;stroke-dashoffset:0" id="content" transform="matrix(1.0629921,0,0,-1.0629921,-186.02362,789.27165)" xml:space="preserve" stroke-miterlimit="10.433" font-style="normal" font-variant="normal" font-weight="normal" font-stretch="normal" font-size-adjust="none" letter-spacing="normal" word-spacing="normal"><path style="fill:#800080;stroke-width:0" inkscape:connector-curvature="0" d="m 487.66,440.82 0,0.02 0,0.02 0,0.01 -0.01,0.02 0,0.02 0,0.02 -0.01,0.02 0,0.02 -0.01,0.02 -0.01,0.02 -0.01,0.02 -0.01,0.02 -0.01,0.02 -0.01,0.02 -0.01,0.02 -0.02,0.02 -0.02,0.02 -0.01,0.02 -0.02,0.02 -0.02,0.02 -0.02,0.01 -0.03,0.02 -0.02,0.01 -0.03,0.02 -0.02,0.01 -0.03,0.01 -0.02,0.01 -0.01,0 -0.02,0.01 -0.02,0 -0.01,0 -0.02,0.01 -0.02,0 -0.02,0 -0.02,0 -0.02,0 -0.02,0 -0.02,0 c -0.25,0 -0.31,-0.04 -0.9,-0.75 l -2.39,-2.84 c -1.3,2.34 -3.89,3.59 -7.13,3.59 -6.33,0 -12.3,-5.73 -12.3,-11.76 0,-4.03 2.65,-6.33 5.18,-7.06 l 5.32,-1.41 c 1.85,-0.44 4.6,-1.19 4.6,-5.28 0,-4.49 -4.1,-9.16 -8.97,-9.16 -3.19,0 -8.72,1.1 -8.72,7.27 0,1.2 0.25,2.39 0.3,2.69 0.04,0.2 0.09,0.25 0.09,0.35 0,0.5 -0.34,0.55 -0.59,0.55 -0.25,0 -0.35,-0.05 -0.5,-0.2 -0.21,-0.2 -2.99,-11.56 -2.99,-11.7 0,-0.3 0.25,-0.5 0.55,-0.5 0.25,0 0.3,0.04 0.89,0.75 l 2.45,2.82 c 2.14,-2.89 5.52,-3.57 8.41,-3.57 6.78,0 12.66,6.62 12.66,12.79 0,3.44 -1.69,5.14 -2.44,5.83 -1.14,1.16 -1.89,1.34 -6.33,2.5 -1.09,0.3 -2.89,0.8 -3.34,0.89 -1.35,0.45 -3.03,1.89 -3.03,4.53 0,4.05 3.98,8.28 8.71,8.28 4.15,0 7.18,-2.14 7.18,-7.73 0,-1.59 -0.21,-2.49 -0.21,-2.78 0,-0.05 0,-0.5 0.61,-0.5 0.5,0 0.55,0.15 0.74,1 z" id="path9154"/></g>    </g>
    <g style="fill:#000080" transform="matrix(0.87863705,0,0,0.87863705,98.918605,594.44073)" id="g9224">
      <g style="font-style:normal;font-variant:normal;font-weight:normal;font-stretch:normal;letter-spacing:normal;word-spacing:normal;text-anchor:start;fill:#000080;stroke:#000000;stroke-linecap:butt;stroke-linejoin:miter;stroke-miterlimit:10.43299961;stroke-opacity:1;stroke-dasharray:none;stroke-dashoffset:0" word-spacing="normal" letter-spacing="normal" font-size-adjust="none" font-stretch="normal" font-weight="normal" font-variant="normal" font-style="normal" stroke-miterlimit="10.433" xml:space="preserve" transform="matrix(1.0629921,0,0,-1.0629921,-186.02362,789.27165)" id="g9226"><path style="fill:#000080;stroke-width:0" inkscape:connector-curvature="0" id="path9228" d="m 470.61,421.95 0.21,1.28 3.39,13.56 c 0.43,1.74 0.54,1.89 2.68,1.89 h 4.79 c 4.14,0 6.78,-1.34 6.78,-4.78 0,-1.95 -1,-6.23 -2.94,-8.03 -2.5,-2.23 -5.48,-2.64 -7.69,-2.64 h -7.01 l -0.21,-1.28 h 8.47 c 7.08,0 14,5.17 14,10.75 0,3.84 -3.28,7.53 -9.81,7.53 h -16.14 c -0.95,0 -1.5,0 -1.5,-0.95 0,-0.6 0.45,-0.6 1.45,-0.6 0.64,0 1.55,-0.04 2.14,-0.09 0.8,-0.11 1.1,-0.25 1.1,-0.8 0,-0.2 -0.05,-0.36 -0.21,-0.95 l -6.67,-26.75 c -0.5,-1.95 -0.59,-2.34 -4.53,-2.34 -0.84,0 -1.39,0 -1.39,-0.96 0,-0.59 0.59,-0.59 0.73,-0.59 1.41,0 4.94,0.16 6.33,0.16 1.05,0 2.14,-0.07 3.19,-0.07 1.11,0 2.2,-0.09 3.25,-0.09 0.34,0 0.98,0 0.98,1 0,0.55 -0.43,0.55 -1.39,0.55 -1.84,0 -3.23,0 -3.23,0.89 0,0.29 0.09,0.54 0.14,0.84 z"/></g>    </g>
    <g style="fill:#000080" transform="translate(342.74949,369.85208)" id="g9304">
      <g style="font-style:normal;font-variant:normal;font-weight:normal;font-stretch:normal;letter-spacing:normal;word-spacing:normal;text-anchor:start;fill:#000080;stroke:#000000;stroke-linecap:butt;stroke-linejoin:miter;stroke-miterlimit:10.43299961;stroke-opacity:1;stroke-dasharray:none;stroke-dashoffset:0" id="g9306" transform="matrix(1.0629921,0,0,-1.0629921,-186.02362,789.27165)" xml:space="preserve" stroke-miterlimit="10.433" font-style="normal" font-variant="normal" font-weight="normal" font-stretch="normal" font-size-adjust="none" letter-spacing="normal" word-spacing="normal"><path style="fill:#000080;stroke-width:0" inkscape:connector-curvature="0" d="m 444.7202,412.44302 0.63262,0.25481 0.63262,0.28995 0.62383,0.30752 0.62383,0.35145 0.61505,0.36903 0.60626,0.39539 0.59747,0.42174 0.59747,0.44811 0.57112,0.47446 0.57111,0.49204 0.55354,0.51839 0.53597,0.53597 0.52718,0.56233 0.50083,0.5799 0.49203,0.59747 0.47447,0.61505 0.4481,0.63262 0.43053,0.6414 0.40418,0.66777 0.3866,0.67655 0.36024,0.69412 0.33388,0.70291 0.30752,0.72048 0.28117,0.72927 0.2548,0.73806 0.21966,0.74684 0.18452,0.76441 0.15815,0.76442 0.1318,0.7732 0.0879,0.78199 0.0527,0.78198 0.0176,0.79078 c 0,7.05545 -4.6392,11.77373 -11.16748,11.77373 l -0.26359,-1.09829 c 4.37562,0 7.57385,-3.40033 7.57385,-9.27841 0,-4.37561 -2.23173,-14.62052 -9.57714,-18.72376 -0.21966,1.52005 -0.65898,4.71828 -3.85722,4.71828 v -0.95771 c 1.83636,0 2.67106,-1.05436 2.67106,-3.71663 0,-0.65898 -0.0527,-0.70291 -0.49204,-0.87864 -1.12465,-0.48325 -2.44261,-0.78199 -3.66391,-0.78199 h 0 c -0.61505,0 -2.02087,0 -2.02087,1.88028 0,1.73971 1.66063,3.49698 3.50576,3.49698 v 0.95771 c -2.3196,0 -4.46347,-2.19659 -4.46347,-4.45469 0,-0.87863 0.26359,-1.36188 0.26359,-1.40581 h 0 c -3.4179,1.34431 -4.9028,4.76221 -4.9028,8.70729 0,3.02251 1.13345,9.23447 4.46348,13.96154 3.19824,4.47226 7.31026,6.47556 10.49971,6.47556 l 0.26359,1.09829 c -9.44534,0 -19.08399,-9.93738 -19.08399,-20.13836 0,-7.25754 4.90279,-11.67708 11.21141,-11.67708 1.08951,0 2.58319,0.17572 4.28774,0.65897 -0.18451,-2.72377 -0.18451,-2.80285 -0.18451,-3.38275 0,-1.39703 0,-4.81493 3.64634,-4.81493 5.20154,0 7.30148,8.01317 7.30148,8.49642 0,0.29874 -0.30752,0.43932 -0.48325,0.43932 -0.34267,0 -0.43932,-0.21966 -0.5184,-0.48325 -1.04558,-3.11038 -3.58484,-4.19989 -5.12245,-4.19989 -2.02087,0 -2.67984,1.17738 -3.10159,4.50741 z" id="path9308"/></g>    </g>
    <g id="g9482" transform="matrix(0.49081043,0,0,0.49081043,693.60247,717.34717)">
      <g id="g9484" transform="matrix(1.0629921,0,0,-1.0629921,-186.02362,789.27165)" xml:space="preserve" stroke-miterlimit="10.433" font-style="normal" font-variant="normal" font-weight="normal" font-stretch="normal" font-size-adjust="none" letter-spacing="normal" word-spacing="normal" style="font-style:normal;font-variant:normal;font-weight:normal;font-stretch:normal;letter-spacing:normal;word-spacing:normal;text-anchor:start;fill:none;stroke:#000000;stroke-linecap:butt;stroke-linejoin:miter;stroke-miterlimit:10.43299961;stroke-opacity:1;stroke-dasharray:none;stroke-dashoffset:0"><path d="m 477.19,423.14 0.45,0.12 0.44,0.12 0.44,0.14 0.43,0.15 0.42,0.16 0.42,0.17 0.4,0.18 0.4,0.19 0.39,0.19 0.37,0.21 0.37,0.22 0.35,0.22 0.34,0.23 0.33,0.24 0.32,0.25 0.3,0.26 0.29,0.27 0.27,0.27 0.26,0.28 0.24,0.29 0.23,0.29 0.21,0.31 0.19,0.3 0.18,0.32 0.15,0.32 0.14,0.33 0.12,0.33 0.09,0.35 0.08,0.34 0.06,0.35 0.03,0.36 0.01,0.36 c 0,4.78 -5.67,8.97 -13,8.97 h -15.64 v -1.55 h 1.19 c 3.84,0 3.93,-0.54 3.93,-2.34 v -26.25 c 0,-1.8 -0.09,-2.34 -3.93,-2.34 h -1.19 v -1.55 c 1.78,0.16 5.33,0.16 7.27,0.16 1.93,0 5.48,0 7.28,-0.16 v 1.55 h -1.21 c -3.82,0 -3.93,0.54 -3.93,2.34 v 12.59 1.11 12.89 c 0,1.16 0,1.75 1.09,1.91 0.5,0.09 1.95,0.09 2.95,0.09 4.47,0 10.07,-0.2 10.07,-7.42 0,-3.44 -1.21,-7.47 -8.58,-7.47 h -5.53 v -1.11 h 5.73 c 0.8,0 2.89,0 4.63,-1.68 1.9,-1.8 1.9,-3.35 1.9,-6.68 0,-3.25 0,-5.23 2.03,-7.12 2.05,-1.8 4.78,-2.09 6.28,-2.09 3.89,0 4.74,4.07 4.74,5.48 0,0.3 0,0.84 -0.64,0.84 -0.55,0 -0.55,-0.45 -0.61,-0.79 -0.3,-3.55 -2.03,-4.44 -3.28,-4.44 -2.44,0 -2.85,2.55 -3.55,7.17 l -0.64,3.99 c -0.89,3.18 -3.34,4.84 -6.08,5.78 z" id="path9486" inkscape:connector-curvature="0" style="fill:#000000;stroke-width:0"/><path d="m 497.77,417.71 0.05,1.05 c 0.29,7.42 4.48,8.66 6.18,8.66 5.13,0 5.63,-6.72 5.63,-8.66 h -11.81 l -0.05,-1.05 h 13.91 c 1.09,0 1.23,0 1.23,1.05 0,4.92 -2.69,9.75 -8.91,9.75 -5.78,0 -10.37,-5.12 -10.37,-11.36 0,-6.67 5.23,-11.5 10.97,-11.5 6.08,0 8.31,5.53 8.31,6.47 0,0.5 -0.39,0.61 -0.64,0.61 -0.45,0 -0.55,-0.3 -0.66,-0.7 -1.73,-5.13 -6.22,-5.13 -6.72,-5.13 -2.5,0 -4.48,1.49 -5.62,3.33 -1.5,2.39 -1.5,5.69 -1.5,7.48 z" id="path9488" inkscape:connector-curvature="0" style="fill:#000000;stroke-width:0"/></g>    </g>
    <g id="g9578" transform="matrix(0.49081043,0,0,0.49081043,-25.313202,264.76012)">
      <g word-spacing="normal" letter-spacing="normal" font-size-adjust="none" font-stretch="normal" font-weight="normal" font-variant="normal" font-style="normal" stroke-miterlimit="10.433" xml:space="preserve" transform="matrix(1.0629921,0,0,-1.0629921,-186.02362,789.27165)" id="g9580" style="font-style:normal;font-variant:normal;font-weight:normal;font-stretch:normal;letter-spacing:normal;word-spacing:normal;text-anchor:start;fill:none;stroke:#000000;stroke-linecap:butt;stroke-linejoin:miter;stroke-miterlimit:10.43299961;stroke-opacity:1;stroke-dasharray:none;stroke-dashoffset:0"><path id="path9582" d="m 466.72,436.34 0,0.16 0.01,0.16 0,0.15 0.01,0.15 0.01,0.13 0.01,0.13 0.02,0.13 0.03,0.11 0.03,0.12 0.04,0.1 0.05,0.1 0.05,0.09 0.06,0.09 0.08,0.08 0.08,0.08 0.09,0.07 0.11,0.06 0.12,0.06 0.06,0.03 0.07,0.03 0.07,0.02 0.07,0.03 0.08,0.02 0.08,0.02 0.08,0.02 0.09,0.02 0.09,0.02 0.1,0.02 0.1,0.02 0.11,0.01 0.1,0.01 0.12,0.02 0.11,0.01 0.13,0.01 0.12,0.01 0.13,0.01 0.14,0.01 0.14,0.01 0.15,0 0.15,0.01 0.15,0 0.16,0.01 0.17,0 0.17,0 0.17,0 0.19,0 h 1.29 v 1.55 c -1.75,-0.16 -5.68,-0.16 -7.57,-0.16 -1.94,0 -5.88,0 -7.63,0.16 v -1.55 h 1.3 c 3.93,0 4.09,-0.54 4.09,-2.34 v -26.25 c 0,-1.8 -0.16,-2.34 -4.09,-2.34 h -1.3 v -1.55 c 1.75,0.16 5.69,0.16 7.58,0.16 1.94,0 5.87,0 7.62,-0.16 v 1.55 h -1.29 c -3.94,0 -4.1,0.54 -4.1,2.34 z" inkscape:connector-curvature="0" style="fill:#000000;stroke-width:0"/><path id="path9584" d="m 479,423.34 v -13.36 c 0,-2.23 -0.54,-2.23 -3.89,-2.23 v -1.55 c 1.75,0.05 4.28,0.16 5.63,0.16 1.3,0 3.89,-0.11 5.58,-0.16 v 1.55 c -3.33,0 -3.88,0 -3.88,2.23 v 9.17 c 0,5.19 3.53,7.97 6.72,7.97 3.14,0 3.69,-2.69 3.69,-5.53 v -11.61 c 0,-2.23 -0.55,-2.23 -3.89,-2.23 v -1.55 c 1.75,0.05 4.29,0.16 5.64,0.16 1.29,0 3.87,-0.11 5.58,-0.16 v 1.55 c -3.35,0 -3.89,0 -3.89,2.23 v 9.17 c 0,5.19 3.54,7.97 6.73,7.97 3.14,0 3.69,-2.69 3.69,-5.53 v -11.61 c 0,-2.23 -0.55,-2.23 -3.89,-2.23 v -1.55 c 1.73,0.05 4.28,0.16 5.62,0.16 1.3,0 3.89,-0.11 5.58,-0.16 v 1.55 c -2.58,0 -3.83,0 -3.88,1.5 v 9.51 c 0,4.28 0,5.83 -1.54,7.61 -0.71,0.86 -2.35,1.84 -5.24,1.84 -4.18,0 -6.37,-2.98 -7.22,-4.87 -0.7,4.33 -4.39,4.87 -6.62,4.87 -3.64,0 -5.98,-2.14 -7.38,-5.21 v 5.21 l -7.03,-0.54 v -1.55 c 3.49,0 3.89,-0.34 3.89,-2.78 z" inkscape:connector-curvature="0" style="fill:#000000;stroke-width:0"/></g>    </g>
  </g>
</svg>